# xmcd CD database file
#
# Track frame offsets:
#	150
#	8998
#	24371
#	39814
#	57011
#	72664
#	90959
#	107183
#	122005
#	136163
#	156642
#	173928
#	188187
#
# Disc length: 2710 seconds
#
# Revision: 4
# Processed by: cddbd v1.5.2PL0 Copyright (c) Steve Scherf et al.
# Submitted via: CDex 1.51
#
DISCID=a70a940d
DTITLE=Clarika - Joker
DYEAR=2005
DGENRE=Chanson
TTITLE0=Je Mens
TTITLE1=Joker
TTITLE2=Attache-moi
TTITLE3=Les Patineurs
TTITLE4=Ne Me Demande Pas
TTITLE5=Patricia
TTITLE6=De Quoi c'Est Fait
TTITLE7=Toi Pour Moi
TTITLE8=La Bimbo
TTITLE9=L'Avant-dernier
TTITLE10=Je t'Aimais Mieux
TTITLE11=Feat.Bernard Lavilliers_Non Ca S'peut Pas
TTITLE12=Feat.Michel Jonasz_L'Océan Des Possibles
EXTD=YEAR: 2005
EXTT0=
EXTT1=
EXTT2=
EXTT3=
EXTT4=
EXTT5=
EXTT6=
EXTT7=
EXTT8=
EXTT9=
EXTT10=
EXTT11=
EXTT12=
PLAYORDER=
